<?xml version="1.0" encoding="UTF-8"?>
<svg xmlns="http://www.w3.org/2000/svg" viewBox="0 0 700 360" role="img" aria-label="Schematic spectrogram">
  <style>
    .axis { stroke: #333; stroke-width: 2; }
    .tick-label { font: 500 12px Helvetica, Arial, sans-serif; fill: #333; }
    .label { font: 700 14px Helvetica, Arial, sans-serif; fill: #1f2545; }
  </style>
  <defs>
    <linearGradient id="g1" x1="0" y1="0" x2="0" y2="1">
      <stop offset="0%" stop-color="#1f2545"/>
      <stop offset="50%" stop-color="#5a2a7a"/>
      <stop offset="100%" stop-color="#e8556d"/>
    </linearGradient>
  </defs>
  <!-- bars to simulate spectral content -->
  <g>
    <rect x="80"  y="60"  width="14" height="240" fill="url(#g1)" opacity="0.8"/>
    <rect x="98"  y="80"  width="14" height="220" fill="url(#g1)" opacity="0.7"/>
    <rect x="116" y="50"  width="14" height="250" fill="url(#g1)" opacity="0.85"/>
    <rect x="134" y="100" width="14" height="200" fill="url(#g1)" opacity="0.6"/>
    <rect x="152" y="70"  width="14" height="230" fill="url(#g1)" opacity="0.8"/>
    <rect x="170" y="140" width="14" height="160" fill="url(#g1)" opacity="0.5"/>
    <rect x="188" y="55"  width="14" height="245" fill="url(#g1)" opacity="0.9"/>
    <rect x="206" y="110" width="14" height="190" fill="url(#g1)" opacity="0.65"/>
    <rect x="224" y="75"  width="14" height="225" fill="url(#g1)" opacity="0.8"/>
    <rect x="242" y="155" width="14" height="145" fill="url(#g1)" opacity="0.5"/>
    <rect x="260" y="60"  width="14" height="240" fill="url(#g1)" opacity="0.85"/>
    <rect x="278" y="120" width="14" height="180" fill="url(#g1)" opacity="0.6"/>
    <rect x="296" y="80"  width="14" height="220" fill="url(#g1)" opacity="0.8"/>
    <rect x="314" y="160" width="14" height="140" fill="url(#g1)" opacity="0.5"/>
    <rect x="332" y="50"  width="14" height="250" fill="url(#g1)" opacity="0.9"/>
    <rect x="350" y="115" width="14" height="185" fill="url(#g1)" opacity="0.65"/>
    <rect x="368" y="70"  width="14" height="230" fill="url(#g1)" opacity="0.8"/>
    <rect x="386" y="135" width="14" height="165" fill="url(#g1)" opacity="0.55"/>
    <rect x="404" y="55"  width="14" height="245" fill="url(#g1)" opacity="0.85"/>
    <rect x="422" y="125" width="14" height="175" fill="url(#g1)" opacity="0.6"/>
    <rect x="440" y="85"  width="14" height="215" fill="url(#g1)" opacity="0.75"/>
    <rect x="458" y="145" width="14" height="155" fill="url(#g1)" opacity="0.5"/>
    <rect x="476" y="60"  width="14" height="240" fill="url(#g1)" opacity="0.85"/>
    <rect x="494" y="130" width="14" height="170" fill="url(#g1)" opacity="0.6"/>
    <rect x="512" y="90"  width="14" height="210" fill="url(#g1)" opacity="0.75"/>
    <rect x="530" y="170" width="14" height="130" fill="url(#g1)" opacity="0.45"/>
    <rect x="548" y="65"  width="14" height="235" fill="url(#g1)" opacity="0.85"/>
    <rect x="566" y="115" width="14" height="185" fill="url(#g1)" opacity="0.65"/>
    <rect x="584" y="75"  width="14" height="225" fill="url(#g1)" opacity="0.8"/>
    <rect x="602" y="155" width="14" height="145" fill="url(#g1)" opacity="0.5"/>
    <rect x="620" y="60"  width="14" height="240" fill="url(#g1)" opacity="0.85"/>
  </g>
  <line class="axis" x1="60" y1="40" x2="60" y2="310"/>
  <line class="axis" x1="60" y1="310" x2="650" y2="310"/>
  <text class="tick-label" x="50" y="55" text-anchor="end">high</text>
  <text class="tick-label" x="50" y="310" text-anchor="end">low</text>
  <text class="label" transform="rotate(-90)" x="-175" y="25" text-anchor="middle">frequency</text>
  <text class="label" x="350" y="345" text-anchor="middle">time ’</text>
</svg>
